<?xml version="1.0" encoding="UTF-8" standalone="no"?>
<!-- Created with Inkscape (http://www.inkscape.org/) -->

<svg
   xmlns:dc="http://purl.org/dc/elements/1.1/"
   xmlns:cc="http://creativecommons.org/ns#"
   xmlns:rdf="http://www.w3.org/1999/02/22-rdf-syntax-ns#"
   xmlns:svg="http://www.w3.org/2000/svg"
   xmlns="http://www.w3.org/2000/svg"
   xmlns:sodipodi="http://sodipodi.sourceforge.net/DTD/sodipodi-0.dtd"
   xmlns:inkscape="http://www.inkscape.org/namespaces/inkscape"
   width="256px"
   height="256px"
   viewBox="0 0 256 256"
   version="1.1"
   id="SVGRoot"
   inkscape:version="0.92.1 r15371"
   sodipodi:docname="MISP_upvote1.svg">
  <sodipodi:namedview
     id="base"
     pagecolor="#ffffff"
     bordercolor="#666666"
     borderopacity="1.0"
     inkscape:pageopacity="0.0"
     inkscape:pageshadow="2"
     inkscape:zoom="1.4142136"
     inkscape:cx="-12.536626"
     inkscape:cy="125.05574"
     inkscape:document-units="px"
     inkscape:current-layer="layer1"
     showgrid="false"
     inkscape:window-width="1855"
     inkscape:window-height="1056"
     inkscape:window-x="65"
     inkscape:window-y="24"
     inkscape:window-maximized="1"
     inkscape:grid-bbox="true" />
  <defs
     id="defs5049" />
  <metadata
     id="metadata5052">
    <rdf:RDF>
      <cc:Work
         rdf:about="">
        <dc:format>image/svg+xml</dc:format>
        <dc:type
           rdf:resource="http://purl.org/dc/dcmitype/StillImage" />
        <dc:title></dc:title>
      </cc:Work>
    </rdf:RDF>
  </metadata>
  <g
     id="layer1"
     inkscape:groupmode="layer"
     inkscape:label="Layer 1">
    <g
       id="g4488"
       transform="matrix(0.72362674,0,0,0.72362674,34.314208,35.845171)">
      <path
         id="path5638"
         d="m 163.40909,249.41914 c -11.16916,-1.17609 -28.14222,-5.30466 -47.09295,-11.455 -11.81956,-3.83595 -24.227526,-7.47574 -27.573311,-8.08843 -4.115094,-0.75356 -6.909278,-1.93998 -8.636392,-3.6671 l -2.553138,-2.55318 v -54.76147 -54.76148 l 2.473917,-2.63339 c 1.360687,-1.44836 4.242424,-3.10958 6.403907,-3.6916 4.97981,-1.34095 12.185275,-8.47248 26.157557,-25.889151 5.80809,-7.239949 12.83537,-15.678224 15.61612,-18.751779 6.57261,-7.26468 9.24755,-13.30331 12.71791,-28.710532 3.18477,-14.139121 5.77257,-20.303745 10.36593,-24.69329 2.90416,-2.7752907 3.6414,-2.9765153 10.41703,-2.8431076 17.28695,0.3402389 27.95414,9.3493536 31.07781,26.2470616 2.64168,14.290232 0.35175,27.515777 -7.45531,43.060822 -2.55548,5.088263 -4.64634,9.683103 -4.64634,10.210743 0,0.567269 10.48417,1.100516 25.65514,1.304851 29.0512,0.391236 29.82022,0.559244 38.12651,8.328832 11.48111,10.73919 13.41199,26.32436 5.00409,40.38998 -3.22785,5.39982 -3.24544,5.50208 -1.9851,11.54437 1.52548,7.31313 0.46524,15.46455 -2.85881,21.98028 -1.79748,3.52327 -2.26075,6.27306 -2.36904,14.06078 -0.14363,10.32824 -2.29535,17.17819 -6.95359,22.13666 -1.71828,1.82904 -2.22868,3.7687 -2.40952,9.15707 -0.60363,17.98674 -11.37116,30.367 -29.28126,33.66689 -5.54366,1.02145 -31.85044,1.29048 -40.20116,0.41117 z"
         style="fill:#2fa1db;fill-opacity:1;stroke-width:1.01604486"
         inkscape:connector-curvature="0" />
      <path
         id="path5636"
         d="M 7.4461945,228.86259 C 6.3285441,228.39129 4.4996632,226.98924 3.3820128,225.74698 1.4030235,223.54729 1.349925,222.05804 1.349925,168.75161 v -54.73667 l 2.8172142,-2.81719 2.8172172,-2.81723 H 33.863357 60.742378 l 2.817188,2.81723 2.817228,2.81719 v 54.82026 54.82023 l -2.815419,2.81723 -2.81546,2.81723 -25.633818,0.21465 c -14.098599,0.11828 -26.5482551,-0.17087 -27.6659025,-0.6421 z"
         style="fill:#5f6062;fill-opacity:1;stroke-width:1.01604486"
         inkscape:connector-curvature="0" />
      <path
         id="path4496"
         d="m 36.256123,208.02913 c 6.011318,-3.10858 6.843774,-10.34772 1.773019,-15.41848 -5.070746,-5.07075 -12.309903,-4.23827 -15.418472,1.77302 -4.769332,9.22289 4.42259,18.41481 13.645453,13.64546 z"
         style="fill:#2fa1db;fill-opacity:1;stroke-width:1.01604486"
         inkscape:connector-curvature="0" />
    </g>
  </g>
</svg>
